<svg width="20" height="20" viewBox="0 0 20 20" fill="none" xmlns="http://www.w3.org/2000/svg">
<path d="M9.16675 1.66699H7.50008C3.33341 1.66699 1.66675 3.33366 1.66675 7.50033V12.5003C1.66675 16.667 3.33341 18.3337 7.50008 18.3337H12.5001C16.6667 18.3337 18.3334 16.667 18.3334 12.5003V10.8337" stroke="url(#paint0_linear_243_2300)" stroke-width="1.5" stroke-linecap="round" stroke-linejoin="round"/>
<path d="M13.3666 2.51688L6.7999 9.08354C6.5499 9.33354 6.2999 9.82521 6.2499 10.1835L5.89157 12.6919C5.75823 13.6002 6.3999 14.2335 7.30823 14.1085L9.81657 13.7502C10.1666 13.7002 10.6582 13.4502 10.9166 13.2002L17.4832 6.63354C18.6166 5.50021 19.1499 4.18354 17.4832 2.51688C15.8166 0.850211 14.4999 1.38354 13.3666 2.51688Z" stroke="url(#paint1_linear_243_2300)" stroke-width="1.5" stroke-miterlimit="10" stroke-linecap="round" stroke-linejoin="round"/>
<path d="M12.4248 3.4585C12.9831 5.45016 14.5415 7.0085 16.5415 7.57516" stroke="url(#paint2_linear_243_2300)" stroke-width="1.5" stroke-miterlimit="10" stroke-linecap="round" stroke-linejoin="round"/>
<defs>
<linearGradient id="paint0_linear_243_2300" x1="2.06515" y1="10.0003" x2="18.3334" y2="10.0003" gradientUnits="userSpaceOnUse">
<stop stop-color="#097BD8"/>
<stop offset="1" stop-color="#097BD8" stop-opacity="0.9"/>
</linearGradient>
<linearGradient id="paint1_linear_243_2300" x1="6.17686" y1="7.7909" x2="18.5426" y2="7.7909" gradientUnits="userSpaceOnUse">
<stop stop-color="#097BD8"/>
<stop offset="1" stop-color="#097BD8" stop-opacity="0.9"/>
</linearGradient>
<linearGradient id="paint2_linear_243_2300" x1="12.5232" y1="5.51683" x2="16.5415" y2="5.51683" gradientUnits="userSpaceOnUse">
<stop stop-color="#097BD8"/>
<stop offset="1" stop-color="#097BD8" stop-opacity="0.9"/>
</linearGradient>
</defs>
</svg>
