<svg width="48" height="48" viewBox="0 0 48 48" fill="none" xmlns="http://www.w3.org/2000/svg">
<path d="M17.4 14.0999H30.6C31.7 14.0999 32.6 14.9999 32.6 16.0999V18.2999C32.6 19.0999 32.1 20.0999 31.6 20.5999L27.3 24.3999C26.7 24.8999 26.3 25.8999 26.3 26.6999V30.9999C26.3 31.5999 25.9 32.3999 25.4 32.6999L24 33.5999C22.7 34.3999 20.9 33.4999 20.9 31.8999V26.5999C20.9 25.8999 20.5 24.9999 20.1 24.4999L16.3 20.4999C15.8 19.9999 15.4 19.0999 15.4 18.4999V16.1999C15.4 14.9999 16.3 14.0999 17.4 14.0999Z" stroke="#747474" stroke-width="1.5" stroke-miterlimit="10" stroke-linecap="round" stroke-linejoin="round"/>
<path d="M22.93 14.0999L18 21.9999" stroke="#747474" stroke-width="1.5" stroke-miterlimit="10" stroke-linecap="round" stroke-linejoin="round"/>
</svg>
