<svg width="47" height="48" viewBox="0 0 47 48" fill="none" xmlns="http://www.w3.org/2000/svg">
<g clip-path="url(#clip0_575_6249)">
<path d="M28.9605 28.1435C27.8106 28.1435 26.7746 28.6401 26.0556 29.43L19.5881 25.4244C19.7656 24.9705 19.8567 24.4874 19.8565 24C19.8567 23.5126 19.7657 23.0295 19.5881 22.5756L26.0556 18.5698C26.7746 19.3598 27.8106 19.8565 28.9605 19.8565C31.1266 19.8565 32.8889 18.0943 32.8889 15.9282C32.8889 13.762 31.1266 12 28.9605 12C26.7944 12 25.0322 13.7622 25.0322 15.9284C25.0321 16.4157 25.1231 16.8988 25.3006 17.3527L18.8333 21.3584C18.1142 20.5684 17.0782 20.0716 15.9284 20.0716C13.7622 20.0716 12 21.834 12 24C12 26.1661 13.7622 27.9284 15.9284 27.9284C17.0782 27.9284 18.1143 27.4318 18.8333 26.6416L25.3006 30.6473C25.1231 31.1013 25.0321 31.5844 25.0322 32.0718C25.0322 34.2378 26.7944 36 28.9605 36C31.1266 36 32.8889 34.2378 32.8889 32.0719C32.8889 29.9057 31.1266 28.1435 28.9605 28.1435ZM26.4646 15.9284C26.4646 14.5521 27.5843 13.4325 28.9605 13.4325C30.3367 13.4325 31.4564 14.5521 31.4564 15.9284C31.4564 17.3046 30.3367 18.4243 28.9605 18.4243C27.5842 18.4243 26.4646 17.3046 26.4646 15.9284ZM15.9284 26.4959C14.5519 26.4959 13.4323 25.3762 13.4323 24C13.4323 22.6238 14.5519 21.5041 15.9284 21.5041C17.3046 21.5041 18.4241 22.6238 18.4241 24C18.4241 25.3762 17.3046 26.4959 15.9284 26.4959ZM26.4646 32.0717C26.4646 30.6954 27.5843 29.5757 28.9605 29.5757C30.3367 29.5757 31.4564 30.6954 31.4564 32.0716C31.4564 33.4479 30.3367 34.5675 28.9605 34.5675C27.5842 34.5675 26.4646 33.4479 26.4646 32.0716V32.0717Z" fill="#747474"/>
</g>
<defs>
<clipPath id="clip0_575_6249">
<rect width="20.8889" height="24" fill="white" transform="translate(12 12)"/>
</clipPath>
</defs>
</svg>
